G04 #@! TF.GenerationSoftware,KiCad,Pcbnew,(5.0.1)-4*
G04 #@! TF.CreationDate,2018-12-27T15:34:55-05:00*
G04 #@! TF.ProjectId,LED Project,4C45442050726F6A6563742E6B696361,rev?*
G04 #@! TF.SameCoordinates,Original*
G04 #@! TF.FileFunction,Copper,L2,Bot,Signal*
G04 #@! TF.FilePolarity,Positive*
%FSLAX46Y46*%
G04 Gerber Fmt 4.6, Leading zero omitted, Abs format (unit mm)*
G04 Created by KiCad (PCBNEW (5.0.1)-4) date 12/27/2018 3:34:55 PM*
%MOMM*%
%LPD*%
G01*
G04 APERTURE LIST*
G04 #@! TA.AperFunction,ComponentPad*
%ADD10O,1.600000X1.600000*%
G04 #@! TD*
G04 #@! TA.AperFunction,ComponentPad*
%ADD11C,1.600000*%
G04 #@! TD*
G04 #@! TA.AperFunction,ComponentPad*
%ADD12R,1.500000X1.500000*%
G04 #@! TD*
G04 #@! TA.AperFunction,ComponentPad*
%ADD13C,1.500000*%
G04 #@! TD*
G04 #@! TA.AperFunction,ComponentPad*
%ADD14R,1.600000X1.600000*%
G04 #@! TD*
G04 #@! TA.AperFunction,ComponentPad*
%ADD15R,1.800000X1.800000*%
G04 #@! TD*
G04 #@! TA.AperFunction,ComponentPad*
%ADD16C,1.800000*%
G04 #@! TD*
G04 #@! TA.AperFunction,Conductor*
%ADD17C,0.400000*%
G04 #@! TD*
G04 #@! TA.AperFunction,Conductor*
%ADD18C,0.381000*%
G04 #@! TD*
G04 APERTURE END LIST*
D10*
G04 #@! TO.P,R1,2*
G04 #@! TO.N,Net-(A1-Pad17)*
X163830000Y-77395850D03*
D11*
G04 #@! TO.P,R1,1*
G04 #@! TO.N,Net-(Q1-Pad2)*
X163830000Y-87555850D03*
G04 #@! TD*
D10*
G04 #@! TO.P,R3,2*
G04 #@! TO.N,Net-(A1-Pad18)*
X149841674Y-77395850D03*
D11*
G04 #@! TO.P,R3,1*
G04 #@! TO.N,Net-(Q2-Pad2)*
X149841674Y-87555850D03*
G04 #@! TD*
D10*
G04 #@! TO.P,R5,2*
G04 #@! TO.N,Net-(A1-Pad19)*
X136405411Y-77395850D03*
D11*
G04 #@! TO.P,R5,1*
G04 #@! TO.N,Net-(Q3-Pad2)*
X136405411Y-87555850D03*
G04 #@! TD*
D12*
G04 #@! TO.P,Q1,1*
G04 #@! TO.N,Net-(Q1-Pad1)*
X157461674Y-89931209D03*
D13*
G04 #@! TO.P,Q1,3*
G04 #@! TO.N,Net-(A1-Pad9)*
X157461674Y-84851209D03*
G04 #@! TO.P,Q1,2*
G04 #@! TO.N,Net-(Q1-Pad2)*
X157461674Y-87391209D03*
G04 #@! TD*
D12*
G04 #@! TO.P,Q2,1*
G04 #@! TO.N,Net-(Q2-Pad1)*
X143491674Y-89931209D03*
D13*
G04 #@! TO.P,Q2,3*
G04 #@! TO.N,Net-(A1-Pad9)*
X143491674Y-84851209D03*
G04 #@! TO.P,Q2,2*
G04 #@! TO.N,Net-(Q2-Pad2)*
X143491674Y-87391209D03*
G04 #@! TD*
D12*
G04 #@! TO.P,Q3,1*
G04 #@! TO.N,Net-(Q3-Pad1)*
X130791674Y-89931209D03*
D13*
G04 #@! TO.P,Q3,3*
G04 #@! TO.N,Net-(A1-Pad9)*
X130791674Y-84851209D03*
G04 #@! TO.P,Q3,2*
G04 #@! TO.N,Net-(Q3-Pad2)*
X130791674Y-87391209D03*
G04 #@! TD*
D10*
G04 #@! TO.P,R2,2*
G04 #@! TO.N,Net-(D1-Pad2)*
X157461674Y-104065850D03*
D11*
G04 #@! TO.P,R2,1*
G04 #@! TO.N,Net-(Q1-Pad1)*
X157461674Y-93905850D03*
G04 #@! TD*
D10*
G04 #@! TO.P,R6,2*
G04 #@! TO.N,Net-(D3-Pad2)*
X130791674Y-104065850D03*
D11*
G04 #@! TO.P,R6,1*
G04 #@! TO.N,Net-(Q3-Pad1)*
X130791674Y-93905850D03*
G04 #@! TD*
D10*
G04 #@! TO.P,R4,2*
G04 #@! TO.N,Net-(D2-Pad2)*
X143491674Y-104065850D03*
D11*
G04 #@! TO.P,R4,1*
G04 #@! TO.N,Net-(Q2-Pad1)*
X143491674Y-93905850D03*
G04 #@! TD*
D10*
G04 #@! TO.P,A1,16*
G04 #@! TO.N,Net-(A1-Pad16)*
X162560000Y-72390000D03*
G04 #@! TO.P,A1,15*
G04 #@! TO.N,Net-(A1-Pad15)*
X165100000Y-72390000D03*
G04 #@! TO.P,A1,30*
G04 #@! TO.N,Net-(A1-Pad30)*
X125480000Y-72390000D03*
G04 #@! TO.P,A1,14*
G04 #@! TO.N,Net-(A1-Pad14)*
X165100000Y-120650000D03*
G04 #@! TO.P,A1,29*
G04 #@! TO.N,Net-(A1-Pad29)*
X128020000Y-72390000D03*
G04 #@! TO.P,A1,13*
G04 #@! TO.N,Net-(A1-Pad13)*
X162560000Y-120650000D03*
G04 #@! TO.P,A1,28*
G04 #@! TO.N,Net-(A1-Pad28)*
X130560000Y-72390000D03*
G04 #@! TO.P,A1,12*
G04 #@! TO.N,Net-(A1-Pad12)*
X160020000Y-120650000D03*
G04 #@! TO.P,A1,27*
G04 #@! TO.N,Net-(A1-Pad27)*
X133100000Y-72390000D03*
G04 #@! TO.P,A1,11*
G04 #@! TO.N,Net-(A1-Pad11)*
X157480000Y-120650000D03*
G04 #@! TO.P,A1,26*
G04 #@! TO.N,Net-(A1-Pad26)*
X135640000Y-72390000D03*
G04 #@! TO.P,A1,10*
G04 #@! TO.N,Net-(A1-Pad10)*
X154940000Y-120650000D03*
G04 #@! TO.P,A1,25*
G04 #@! TO.N,Net-(A1-Pad25)*
X138180000Y-72390000D03*
G04 #@! TO.P,A1,9*
G04 #@! TO.N,Net-(A1-Pad9)*
X152400000Y-120650000D03*
G04 #@! TO.P,A1,24*
G04 #@! TO.N,Net-(A1-Pad24)*
X140720000Y-72390000D03*
G04 #@! TO.P,A1,8*
G04 #@! TO.N,Net-(A1-Pad8)*
X147320000Y-120650000D03*
G04 #@! TO.P,A1,23*
G04 #@! TO.N,Net-(A1-Pad23)*
X143260000Y-72390000D03*
G04 #@! TO.P,A1,7*
G04 #@! TO.N,GND*
X144780000Y-120650000D03*
G04 #@! TO.P,A1,22*
G04 #@! TO.N,Net-(A1-Pad22)*
X147320000Y-72390000D03*
G04 #@! TO.P,A1,6*
G04 #@! TO.N,Net-(A1-Pad6)*
X142240000Y-120650000D03*
G04 #@! TO.P,A1,21*
G04 #@! TO.N,Net-(A1-Pad21)*
X149860000Y-72390000D03*
G04 #@! TO.P,A1,5*
G04 #@! TO.N,Net-(A1-Pad5)*
X139700000Y-120650000D03*
G04 #@! TO.P,A1,20*
G04 #@! TO.N,Net-(A1-Pad20)*
X152400000Y-72390000D03*
G04 #@! TO.P,A1,4*
G04 #@! TO.N,Net-(A1-Pad4)*
X137160000Y-120650000D03*
G04 #@! TO.P,A1,19*
G04 #@! TO.N,Net-(A1-Pad19)*
X154940000Y-72390000D03*
G04 #@! TO.P,A1,3*
G04 #@! TO.N,Net-(A1-Pad3)*
X134620000Y-120650000D03*
G04 #@! TO.P,A1,18*
G04 #@! TO.N,Net-(A1-Pad18)*
X157480000Y-72390000D03*
G04 #@! TO.P,A1,2*
G04 #@! TO.N,Net-(A1-Pad2)*
X132080000Y-120650000D03*
G04 #@! TO.P,A1,17*
G04 #@! TO.N,Net-(A1-Pad17)*
X160020000Y-72390000D03*
D14*
G04 #@! TO.P,A1,1*
G04 #@! TO.N,Net-(A1-Pad1)*
X129540000Y-120650000D03*
D10*
G04 #@! TO.P,A1,31*
G04 #@! TO.N,Net-(A1-Pad31)*
X122940000Y-72390000D03*
G04 #@! TO.P,A1,32*
G04 #@! TO.N,Net-(A1-Pad32)*
X120400000Y-72390000D03*
G04 #@! TD*
D15*
G04 #@! TO.P,D1,1*
G04 #@! TO.N,GND*
X157461674Y-111521209D03*
D16*
G04 #@! TO.P,D1,2*
G04 #@! TO.N,Net-(D1-Pad2)*
X157461674Y-108981209D03*
G04 #@! TD*
G04 #@! TO.P,D2,2*
G04 #@! TO.N,Net-(D2-Pad2)*
X143491674Y-108981209D03*
D15*
G04 #@! TO.P,D2,1*
G04 #@! TO.N,GND*
X143491674Y-111521209D03*
G04 #@! TD*
G04 #@! TO.P,D3,1*
G04 #@! TO.N,GND*
X130791674Y-111521209D03*
D16*
G04 #@! TO.P,D3,2*
G04 #@! TO.N,Net-(D3-Pad2)*
X130791674Y-108981209D03*
G04 #@! TD*
D17*
G04 #@! TO.N,Net-(A1-Pad17)*
X163830000Y-77395850D02*
X162485850Y-77395850D01*
X160020000Y-74930000D02*
X160020000Y-72390000D01*
X162485850Y-77395850D02*
X160020000Y-74930000D01*
G04 #@! TO.N,Net-(A1-Pad18)*
X149841674Y-77395850D02*
X157405850Y-77395850D01*
X157480000Y-77321700D02*
X157480000Y-72390000D01*
X157405850Y-77395850D02*
X157480000Y-77321700D01*
G04 #@! TO.N,Net-(A1-Pad19)*
X154940000Y-74930000D02*
X154940000Y-72390000D01*
X137250820Y-74930000D02*
X154940000Y-74930000D01*
X137205410Y-74975410D02*
X137250820Y-74930000D01*
X136405411Y-77395850D02*
X137205410Y-76595851D01*
X137205410Y-76595851D02*
X137205410Y-74975410D01*
G04 #@! TO.N,Net-(A1-Pad9)*
X143491674Y-82568326D02*
X143491674Y-84851209D01*
X143510000Y-82550000D02*
X143491674Y-82568326D01*
X130810000Y-82550000D02*
X143510000Y-82550000D01*
X130791674Y-84851209D02*
X130791674Y-82568326D01*
X130791674Y-82568326D02*
X130810000Y-82550000D01*
X157461674Y-84851209D02*
X157461674Y-82568326D01*
X157461674Y-82568326D02*
X157443348Y-82550000D01*
X157443348Y-82550000D02*
X143510000Y-82550000D01*
X152400000Y-115570000D02*
X152400000Y-120650000D01*
X167640000Y-115570000D02*
X152400000Y-115570000D01*
X167640000Y-85090000D02*
X167640000Y-115570000D01*
X157461674Y-84851209D02*
X167401209Y-84851209D01*
X167401209Y-84851209D02*
X167640000Y-85090000D01*
D18*
G04 #@! TO.N,Net-(D1-Pad2)*
X157461674Y-105197220D02*
X157461674Y-108981209D01*
X157461674Y-104065850D02*
X157461674Y-105197220D01*
G04 #@! TO.N,Net-(D2-Pad2)*
X143491674Y-105197220D02*
X143491674Y-108981209D01*
X143491674Y-104065850D02*
X143491674Y-105197220D01*
G04 #@! TO.N,Net-(D3-Pad2)*
X130791674Y-105197220D02*
X130791674Y-108981209D01*
X130791674Y-104065850D02*
X130791674Y-105197220D01*
G04 #@! TO.N,Net-(Q1-Pad1)*
X157461674Y-91062209D02*
X157461674Y-93905850D01*
X157461674Y-89931209D02*
X157461674Y-91062209D01*
D17*
G04 #@! TO.N,Net-(Q1-Pad2)*
X157626315Y-87555850D02*
X157461674Y-87391209D01*
X163830000Y-87555850D02*
X157626315Y-87555850D01*
G04 #@! TO.N,Net-(Q2-Pad2)*
X143656315Y-87555850D02*
X143491674Y-87391209D01*
X149841674Y-87555850D02*
X143656315Y-87555850D01*
D18*
G04 #@! TO.N,Net-(Q2-Pad1)*
X143491674Y-91062209D02*
X143491674Y-93905850D01*
X143491674Y-89931209D02*
X143491674Y-91062209D01*
G04 #@! TO.N,Net-(Q3-Pad1)*
X130791674Y-91062209D02*
X130791674Y-93905850D01*
X130791674Y-89931209D02*
X130791674Y-91062209D01*
G04 #@! TO.N,Net-(Q3-Pad2)*
X136405411Y-87555850D02*
X130791674Y-87391209D01*
D17*
G04 #@! TO.N,GND*
X157461674Y-111521209D02*
X143491674Y-111521209D01*
X130791674Y-111521209D02*
X143491674Y-111521209D01*
X144780000Y-120650000D02*
X144780000Y-119380000D01*
X143491674Y-118091674D02*
X143491674Y-111521209D01*
X144780000Y-119380000D02*
X143491674Y-118091674D01*
G04 #@! TD*
M02*
