M48
;DRILL file {KiCad (5.0.1)-4} date 12/27/2018 3:37:57 PM
;FORMAT={-:-/ absolute / inch / decimal}
FMAT,2
INCH,TZ
T1C0.0315
T2C0.0354
%
G90
G05
M72
T1
X5.6493Y-3.6971
X5.6493Y-4.0971
X5.3703Y-3.0471
X5.3703Y-3.4471
X4.7402Y-2.85
X4.8402Y-2.85
X4.9402Y-2.85
X5.0402Y-2.85
X5.1Y-4.75
X5.1402Y-2.85
X5.2Y-4.75
X5.2402Y-2.85
X5.3Y-4.75
X5.3402Y-2.85
X5.4Y-4.75
X5.4402Y-2.85
X5.5Y-4.75
X5.5402Y-2.85
X5.6Y-4.75
X5.6402Y-2.85
X5.7Y-4.75
X5.8Y-2.85
X5.8Y-4.75
X5.9Y-2.85
X6.Y-2.85
X6.Y-4.75
X6.1Y-2.85
X6.1Y-4.75
X6.2Y-2.85
X6.2Y-4.75
X6.3Y-2.85
X6.3Y-4.75
X6.4Y-2.85
X6.4Y-4.75
X6.5Y-2.85
X6.5Y-4.75
X5.1493Y-3.3406
X5.1493Y-3.4406
X5.1493Y-3.5406
X6.45Y-3.0471
X6.45Y-3.4471
X6.1993Y-3.3406
X6.1993Y-3.4406
X6.1993Y-3.5406
X5.6493Y-3.3406
X5.6493Y-3.4406
X5.6493Y-3.5406
X5.1493Y-3.6971
X5.1493Y-4.0971
X5.8993Y-3.0471
X5.8993Y-3.4471
X6.1993Y-3.6971
X6.1993Y-4.0971
T2
X6.1993Y-4.2906
X6.1993Y-4.3906
X5.6493Y-4.2906
X5.6493Y-4.3906
X5.1493Y-4.2906
X5.1493Y-4.3906
T0
M30
