G04 #@! TF.GenerationSoftware,KiCad,Pcbnew,(5.0.1)-4*
G04 #@! TF.CreationDate,2018-12-27T15:34:55-05:00*
G04 #@! TF.ProjectId,LED Project,4C45442050726F6A6563742E6B696361,rev?*
G04 #@! TF.SameCoordinates,Original*
G04 #@! TF.FileFunction,Legend,Bot*
G04 #@! TF.FilePolarity,Positive*
%FSLAX46Y46*%
G04 Gerber Fmt 4.6, Leading zero omitted, Abs format (unit mm)*
G04 Created by KiCad (PCBNEW (5.0.1)-4) date 12/27/2018 3:34:55 PM*
%MOMM*%
%LPD*%
G01*
G04 APERTURE LIST*
%ADD10C,0.120000*%
%ADD11C,0.150000*%
G04 APERTURE END LIST*
D10*
G04 #@! TO.C,A1*
X167770000Y-82800000D02*
X170310000Y-85340000D01*
X167770000Y-71370000D02*
X167770000Y-82800000D01*
X166120000Y-69720000D02*
X167770000Y-71370000D01*
X101470000Y-69720000D02*
X166120000Y-69720000D01*
X101470000Y-79250000D02*
X101470000Y-69720000D01*
X95120000Y-79250000D02*
X101470000Y-79250000D01*
X95120000Y-90930000D02*
X95120000Y-79250000D01*
X101470000Y-90930000D02*
X95120000Y-90930000D01*
X101470000Y-111000000D02*
X101470000Y-90930000D01*
X99570000Y-111000000D02*
X101470000Y-111000000D01*
X99570000Y-120140000D02*
X99570000Y-111000000D01*
X101470000Y-120140000D02*
X99570000Y-120140000D01*
X101470000Y-123320000D02*
X101470000Y-120140000D01*
X167770000Y-123320000D02*
X101470000Y-123320000D01*
X167770000Y-120650000D02*
X167770000Y-123320000D01*
X170310000Y-118110000D02*
X167770000Y-120650000D01*
X170310000Y-85340000D02*
X170310000Y-118110000D01*
G04 #@! TD*
G04 #@! TO.C,A1*
D11*
X126169284Y-121091667D02*
X125693094Y-121091667D01*
X126264522Y-121377381D02*
X125931189Y-120377381D01*
X125597856Y-121377381D01*
X124740713Y-121377381D02*
X125312141Y-121377381D01*
X125026427Y-121377381D02*
X125026427Y-120377381D01*
X125121665Y-120520239D01*
X125216903Y-120615477D01*
X125312141Y-120663096D01*
G04 #@! TD*
M02*
